<?xml version="1.0" standalone="no"?>
<!DOCTYPE svg PUBLIC "-//W3C//DTD SVG 20010904//EN"
 "http://www.w3.org/TR/2001/REC-SVG-20010904/DTD/svg10.dtd">
<svg version="1.0" xmlns="http://www.w3.org/2000/svg"
 width="1100.000000pt" height="730.400000pt" viewBox="0 0 1100.000000 730.400000"
 preserveAspectRatio="xMidYMid meet">
<metadata>
Created by potrace 1.13, written by Peter Selinger 2001-2015
</metadata>
<g transform="translate(0.000000,730.400000) scale(0.080000,-0.080000)"
fill="#000000" stroke="none">
<path d="M6605 8080 c-1266 -113 -2339 -897 -2824 -2063 -247 -594 -313 -1289
-185 -1927 95 -475 284 -907 570 -1305 83 -114 181 -235 192 -235 4 0 47 135
96 299 l88 299 -61 99 c-295 466 -447 1036 -428 1593 25 700 295 1343 781
1857 71 76 306 286 312 280 1 -1 -186 -634 -417 -1406 -230 -773 -419 -1406
-419 -1408 0 -2 129 -3 288 -3 l287 0 285 953 c156 523 372 1247 480 1607
l196 655 57 23 c124 49 498 144 513 130 3 -4 -189 -656 -426 -1450 -973 -3252
-1167 -3904 -1173 -3935 -6 -31 -4 -34 96 -105 611 -438 1323 -658 2057 -635
499 16 949 129 1390 348 306 152 553 323 788 543 616 578 977 1313 1057 2150
8 88 15 165 15 173 0 11 -122 13 -700 13 -385 0 -700 -3 -700 -7 0 -4 34 -121
77 -260 l76 -253 327 -2 328 -3 -34 -121 c-95 -351 -288 -724 -522 -1013 -76
-94 -282 -314 -288 -308 -2 2 -209 689 -459 1527 -251 839 -534 1786 -630
2105 -342 1145 -366 1227 -361 1233 9 8 198 -33 340 -74 664 -191 1271 -662
1626 -1261 l43 -73 289 0 c158 0 288 3 288 7 0 3 -25 56 -56 117 -510 1007
-1460 1677 -2584 1821 -147 19 -532 27 -675 15z m384 -1701 c387 -1292 511
-1709 511 -1719 0 -7 -201 -10 -629 -10 l-629 0 20 63 c10 34 150 499 309
1032 159 534 292 978 295 988 3 10 8 17 10 14 2 -2 53 -167 113 -368z m720
-2406 c41 -137 495 -1657 507 -1695 4 -14 -16 -28 -93 -66 -263 -132 -546
-218 -883 -269 -144 -21 -559 -24 -695 -5 -356 52 -600 123 -883 258 -110 52
-133 66 -128 81 26 85 465 1555 502 1681 l48 162 791 0 791 0 43 -147z"/>
</g>
</svg>
